<svg width="218" height="54" viewBox="0 0 218 54" fill="none" xmlns="http://www.w3.org/2000/svg" role="img" aria-label="USE OVERLAY">
<rect width="218" height="54" rx="12" fill="#6fce72"/>
<rect x="0.5" y="0.5" width="217" height="53" rx="11.5" stroke="#000000" stroke-opacity="0.10"/>
<g transform="translate(30.00,34.56)">
<path transform="translate(0.00,0) scale(0.01025,-0.01025)" d="M143 225V1364H389V279Q389 256 405.0 240.5Q421 225 444 225H752Q775 225 791.0 240.5Q807 256 807 279V1364H1053V225Q1053 131 987.0 65.5Q921 0 827 0H367Q273 0 208.0 65.5Q143 131 143 225Z" fill="#0d100c"/>
<path transform="translate(12.26,0) scale(0.01025,-0.01025)" d="M143 225V412H389V279Q389 256 405.0 240.5Q421 225 444 225H733Q756 225 772.0 240.5Q788 256 788 279V475Q788 519 733 532Q569 577 367 637Q264 668 205.5 719.5Q147 771 147 858V1139Q147 1233 212.0 1298.5Q277 1364 371 1364H803Q897 1364 962.5 1298.5Q1028 1233 1028 1139V948H782V1085Q782 1108 766.0 1123.5Q750 1139 727 1139H449Q426 1139 409.5 1123.5Q393 1108 393 1085V915Q393 893 408.5 877.5Q424 862 449 856Q509 839 627.5 806.5Q746 774 821 752Q1034 692 1034 530V225Q1034 131 969.5 65.5Q905 0 811 0H369Q275 0 209.0 65.5Q143 131 143 225Z" fill="#0d100c"/>
<path transform="translate(24.13,0) scale(0.01025,-0.01025)" d="M154 0V1364H981V1139H399V801H930V575H399V225H981V0Z" fill="#0d100c"/>
<path transform="translate(39.85,0) scale(0.01025,-0.01025)" d="M143 225V1139Q143 1233 208.0 1298.5Q273 1364 367 1364H848Q942 1364 1007.5 1298.5Q1073 1233 1073 1139V225Q1073 131 1007.5 65.5Q942 0 848 0H367Q273 0 208.0 65.5Q143 131 143 225ZM389 279Q389 256 405.0 240.5Q421 225 444 225H772Q795 225 811.0 240.5Q827 256 827 279V1085Q827 1108 811.0 1123.5Q795 1139 772 1139H444Q421 1139 405.0 1123.5Q389 1108 389 1085Z" fill="#0d100c"/>
<path transform="translate(52.32,0) scale(0.01025,-0.01025)" d="M41 1364H285L578 373L872 1364H1116L698 0H459Z" fill="#0d100c"/>
<path transform="translate(64.18,0) scale(0.01025,-0.01025)" d="M154 0V1364H981V1139H399V801H930V575H399V225H981V0Z" fill="#0d100c"/>
<path transform="translate(75.39,0) scale(0.01025,-0.01025)" d="M154 0V1364H868Q962 1364 1028.0 1298.5Q1094 1233 1094 1139V752Q1094 673 1046.0 612.0Q998 551 924 532L1186 0H915L657 526H399V0ZM399 752H793Q816 752 832.0 767.0Q848 782 848 805V1085Q848 1108 832.0 1123.5Q816 1139 793 1139H399Z" fill="#0d100c"/>
<path transform="translate(88.28,0) scale(0.01025,-0.01025)" d="M154 0V1364H399V225H956V0Z" fill="#0d100c"/>
<path transform="translate(98.82,0) scale(0.01025,-0.01025)" d="M37 0 498 1364H725L1186 0H938L840 297H379L285 0ZM453 516H768L610 1036Z" fill="#0d100c"/>
<path transform="translate(111.35,0) scale(0.01025,-0.01025)" d="M0 1364H260L528 821L797 1364H1057L651 549V0H406V549Z" fill="#0d100c"/>
</g>
<g stroke="#0d100c" stroke-width="3" stroke-linecap="round" stroke-linejoin="round" fill="none"><path d="M168.2 27.0 H188.2"/><path d="M180.2 20.0 L188.2 27.0 L180.2 34.0"/></g>
</svg>